<?xml version="1.0" encoding="utf-8"?>
<svg viewBox="0 0 1134.357 756.152" width="1134.357px" height="756.152px" xmlns="http://www.w3.org/2000/svg">
  <g id="g6134" transform="matrix(1, 0, 0, 1, 0.928888, 1.151482)">
    <path id="path6168" fill="#F7D3AA" stroke="#646464" stroke-width="0.8504" d="M22.471,1.309l-1.465,0.606l2.171-1.581 L22.471,1.309"/>
  </g>
  <path id="path9385" fill="#FFFFD0" stroke="#646464" stroke-width="0.8504" stroke-linecap="square" stroke-linejoin="bevel" d=" M1045.927,221.544l7.414-0.374l6.742-4.069l6.734,2.85l7.248-1.88l9.381,0.178l0.967,3.3l1.646,0.759l0.344,3.823l5.006,7.584 l-2.329,8.071l2.137,5.852l-3.27,3.521l-9.984,2.865l-8.256-0.528l-21.317,1.786l-17.648,6.474l-12.009,0.155l-10.154-2.031 l-11.325,7.135l-7.576,1.676l-4.587-3.76l-4.367-0.313l-13.001,7.074l-0.129-3.612l-9.604,0.66l-4.254-3.733l0.731-4.96l9.981-11.14 l1.623-5.485l3.76-0.91l2.624-3.216l4.848-2.699l3.93-0.34l1.51,1.223l9.962-7.085l-1.778-0.797l-2.51,1.854l-1.234-1.136 l-4.866,0.498l-1.099,1.771l-15.783,8.021l-1.034-9.947l8.886-12.182l4.021-3.126l5.014,0.445l3.737-1.808l2.106,1.026l10.377-0.849 l0.838,0.476l-1.906,2.827l-0.358,7.165l3.047,2.159l9.966-6.146l10.057-0.925l4.326-1.695l5.508,0.261l5.262,2.843 L1045.927,221.544" class="Kab06 _data0">
    <title>Alor</title>
  </path>
  <path id="path9387" fill="#FFFFD0" stroke="#646464" stroke-width="0.8504" stroke-linecap="square" stroke-linejoin="bevel" d=" M960.201,228.376l-0.113,3.239l-2.072-0.532l1.012-3.511L960.201,228.376" class="Kab06 _data0">
    <title>Alor</title>
  </path>
  <path id="path9389" fill="#FFFFD0" stroke="#646464" stroke-width="0.8504" stroke-linecap="square" stroke-linejoin="bevel" d=" M956.955,240.354l2.823,1.902l0.14,3.19l-1.985,3.201l-5.575-0.162l-2.413-4.772l3.862-3.442L956.955,240.354" class="Kab06 _data0">
    <title>Alor</title>
  </path>
  <path id="path9391" fill="#FFFFD0" stroke="#646464" stroke-width="0.8504" stroke-linecap="square" stroke-linejoin="bevel" d=" M960.85,224.213l-1.668-0.091l0.256-2.163l2.27,1.283L960.85,224.213" class="Kab06 _data0">
    <title>Alor</title>
  </path>
  <path id="path9393" fill="#FFFFD0" stroke="#646464" stroke-width="0.8504" stroke-linecap="square" stroke-linejoin="bevel" d=" M924.331,246.492l0.431-3.774l3.152-2.956l2.774,0.016l4.591-9.981l3.627-3.885l4.938-2.952l4.556,0.095l2.806,1.525l0.565,7.448 l-4.699,6.866l1.857,7.301l-1.4,3.413l-9.295,5.311l-6.504,9.374l0.445,7.651l-3.691,4.485l-2.93-0.026L925,280.385l-4.84,4.794 l-12.076,2.088l-2.635-1.114l-0.283-3.74l1.978-5.259l-1.725-2.254l-0.186-4.096l-2.865-0.502l-0.785-5.35l-8.505-0.075 l-6.837,7.078l-5.171-3.745l5.508-5.405l-0.212-2.971l3.605-7.347l7.048-3.103l8.074-5.852l1.23-0.328l4.153,3.495l0.128,7.837 l1.816-0.298l-1.005,2.562l2.745,1.05l0.124,2.375l2.171-1.873l-0.162-1.514l-2.141-0.012l-0.317-2.186l4.787-2.627l3.348-4.488 L924.331,246.492" class="Kab06 _data0">
    <title>Alor</title>
  </path>
  <path id="path9395" fill="#FFFFD0" stroke="#646464" stroke-width="0.8504" stroke-linecap="square" stroke-linejoin="bevel" d=" M945.154,273.45l0.993,2.042l-2.616,1.449l-1.064-3.023L945.154,273.45" class="Kab06 _data0">
    <title>Alor</title>
  </path>
  <path id="path9397" fill="#FFFFD0" stroke="#646464" stroke-width="0.8504" stroke-linecap="square" stroke-linejoin="bevel" d=" M903.716,229.173l-1.257,2.733l-1.951,0.819l0.883-3.364l1.02,1.487L903.716,229.173" class="Kab06 _data0">
    <title>Alor</title>
  </path>
  <path id="path9399" fill="#FFFFD0" stroke="#646464" stroke-width="0.8504" stroke-linecap="square" stroke-linejoin="bevel" d=" M911.202,231.174l0.895,0.77l-1.068,1.598l-3.039-0.212l0.918-2.004L911.202,231.174" class="Kab06 _data0">
    <title>Alor</title>
  </path>
  <path id="path9401" fill="#FFFFD0" stroke="#646464" stroke-width="0.8504" stroke-linecap="square" stroke-linejoin="bevel" d=" M888.193,252.849l-3.703,5.459l-2.975,0.15l-2.771-2.034l1.903-2.337L888.193,252.849" class="Kab06 _data0">
    <title>Alor</title>
  </path>
  <path id="path9403" fill="#FFFFD0" stroke="#646464" stroke-width="0.8504" stroke-linecap="square" stroke-linejoin="bevel" d=" M866.861,256.07l1.094,7.07l-1.883,0.936l-2.802-2.042l-0.347-5.119l1.324-1.182L866.861,256.07" class="Kab06 _data0">
    <title>Alor</title>
  </path>
  <path id="path9405" fill="#FFFFD0" stroke="#646464" stroke-width="0.8504" stroke-linecap="square" stroke-linejoin="bevel" d=" M877.6,266.696l-2.114,2.228l-1.302-2.103l2.054-1.088L877.6,266.696" class="Kab06 _data0">
    <title>Alor</title>
  </path>
  <path id="path9407" fill="#FFFFD0" stroke="#646464" stroke-width="0.8504" stroke-linecap="square" stroke-linejoin="bevel" d=" M1001.375,212.932l0.234,0.838l-1.725-0.219L1001.375,212.932" class="Kab06 _data0">
    <title>Alor</title>
  </path>
  <path id="path9409" fill="#FFFFD0" stroke="#646464" stroke-width="0.8504" stroke-linecap="square" stroke-linejoin="bevel" d=" M741.95,261.906l-3.787-0.068l-2.189,1.729l-2.178-2.353l-4.341,0.261l-4.028,2.155l-1.333-1.974l0.34-5.497l5.704-10.362 l8.132-5.595l5.028-1.767l5.662-5.409l6.821,1.147l2.45-2.691l2.408-0.109l0.34,2.54l1.442,0.868l3.892-3.159l5.603,4.266 l0.551-1.14l1.778,1.178l1.959-0.755l5.613,3.084l-1.797,3.507l-3.141,2.023l0.461,10.921l-2.239,4.764l-11.019,1.397l-2.193-1.552 l-6.588-0.362l-2.064,1.103l-6.479-0.14L741.95,261.906" class="Kab07 _data3">
    <title>Flores Timur</title>
  </path>
  <path id="path9411" fill="#FFFFD0" stroke="#646464" stroke-width="0.8504" stroke-linecap="square" stroke-linejoin="bevel" d=" M722.675,279.274l-6.014,8.369l0.038,2.442l-2.956,4.935l-4.259,2.649l-4.363-0.347l-2.688-4.232l2.08-9.562l3.266-3.009l7.52-3.054 l1.228-5.655l4.13-4.145l3.234-0.22l4.409,2.383l2.733-2.25l13.522,0.071l4.503-2.216l4.398,2.224l-3.394,4.387l-7.573,1.781 l-4.387,2.885l-4.873,0.547l-4.775-2.673L722.675,279.274" class="Kab07 _data3">
    <title>Flores Timur</title>
  </path>
  <path id="path9413" fill="#FFFFD0" stroke="#646464" stroke-width="0.8504" stroke-linecap="square" stroke-linejoin="bevel" d=" M695.653,267.304l-7.796-2.092l0.204,4.367l-1.31,1.718l1.975,4.662l8.184,7.743l1.103,5.685l-2.118,4.436l-8.938,4.115 l-4.745-1.363l-2.575,0.615l-1.997,4.277l-8.252-1.925l-3.975,2.57l-0.985-1.623l1.238-11.189l1.574-7.319l3.767-5.979l-2.299-4.277 l1.933-3.605l-1.4-4.341l0.975-5.142l7.138-3.926l7.195,0.483l3.953-7.98l3.782-3.201l12.163-1.566l1.944-2.017l3.228-10.188 l4.696-3.054l-0.344-1.22l-3.311,0.23l-3.017-3.084l-5.935,0.045l-1.781,2.023l-1.48-1.14l-2.352,1.993l-4.152,0.906l-3.646,6.379 l-4.356-1.808l-1.155,0.876l-4.247-0.91l0.242-1.574l4.662-3.654l0.407-2.767l3.952-4.753l-1.136-2.42l0.751-4.854l8.233-1.959 l2.567-2.964l-0.25-1.525l1.11,0.819l2.714-1.993l4.266,4.085l13.824,7.833l-0.585,9.124l-2.054,1.729l3.903,3.213l0.578,6.169 l6.073,5.187l0.39,5.824l-6.475,5.459l-3.152,0.801l-6.059-4.089l-2.604,0.057l-6.078,9.593l2.072,3.401l-0.166,7.293l-5.024,1.004 L695.653,267.304" class="Kab07 _data3">
    <title>Flores Timur</title>
  </path>
  <path id="path9415" fill="#FFFFD0" stroke="#646464" stroke-width="0.8504" stroke-linecap="square" stroke-linejoin="bevel" d=" M690.76,269.47l0.279,1.265l-1.344,0.612l-0.302-1.495L690.76,269.47" class="Kab07 _data3">
    <title>Flores Timur</title>
  </path>
  <path id="path9417" fill="#FFFFD0" stroke="#646464" stroke-width="0.8504" stroke-linecap="square" stroke-linejoin="bevel" d=" M903.512,421.876l0.192,1.902l8.543,9.773v2.189l8.116,4.647l0.377,1.431l1.778-0.699l1.888,1.155l3.944,4.466l1.031,3.79 l-1.703,1.317l-7.062-6.146l-3.806-0.543l-0.755,1.091l6.368,10.249l0.506,3.05l-1.831,1.499l-4.608-2.092l-4.277,4.704 l-2.934,1.083l2.017,4.451l-0.819,3.156l4.413,9.339l-1.035,3.337l-2.518,1.408l-0.438,3.877l-3.462,3.899l4.567,8.592l-1.544,3.602 l1.197,8.656l-1.801,7.339l0.725,7.149l2.008,1.975l4.734-0.095l6.837,7.157l-3.398-0.094l-0.426,1.076l1.483,2.91L923.95,543 l7.572,7.188l-1.487,2.673l2.756,3.092l-1.597,2.197l2.208-0.249l-0.766,1.88l1.906,0.396l0.23,2.08l-1.193,1.182l-8.422-1.258 l-6.131,1.341l-5.783,2.771l-3.556,4.273l0.419,2.284l-8.316,4.832l-2.681,4.665l-9.645,0.612l-3.409,3.458l-4.64,0.09l-6.727,3.557 l-1.982,2.473l-11.344,3.857l-5.557-1.279l-10.649,3.167l-8.26-2.854l-4.972,1.075l-2.556,2.432l-7.244-6.323l-4.488-0.951 l-9.762,4.816l-4.7,0.287l0.743-5.277l5.395-5.674l-0.668-0.797l1.805-2.574l-2.031-4.273l-0.019-4.266l6.474-1.303l2.193,1.412 l1.22,7.912l5.474-5.783l2.74,0.306l-2.435,3.043l1.216,6.085l2.435,2.737l6.999-2.435l-0.914-5.474l-1.826-2.436l0.611-1.521 l1.521-1.219l4.383,0.57l-2.699-2.458l6.225-3.586l0.306-1.521l-2.129-3.956l1.216-1.827l-1.566-5.364l6.545-3.79l5.271-0.892 l5.055-9.43l-3.027-2.465l-5.297-0.344l-4.33-2.876l-2.861,1.842l-4.522-1.967l-5.451,1.688l-2.431,4.417h-1.525l-3.133-4.64 l1.34-4.308l-1.755-8.554l1.181-1.133l-0.302-3.412l2.986-3.115l2.809,0.427l0.684-1.774l1.856,1.291l1.608-0.559l4.534-7.002 l-0.438-8.958l-3.967-4.723l5.696-2.828l0.978-2.389l0.494-7.173l-2.234-9.415l0.498-3.096l8.079-6.19l2.22-4.342l9.135-4.288 l1.272-8.751l5.568,0.88l3.507-3.495l4.039-0.147l3.844-3.428l1.147-4.387l5.911-1.431l1.144-4.062l3.775-1.93l2.851-5.779 l2.438-1.695l6.062,0.506L903.512,421.876" class="Kab01 _data4">
    <title>Kupang</title>
  </path>
  <path id="path9419" fill="#FFFFD0" stroke="#646464" stroke-width="0.8504" stroke-linecap="square" stroke-linejoin="bevel" d=" M802.149,555.178l2.809,8.074l1.869,0.382l1.608-1.774l1.925,0.694l0.864,3.507l-7.58,2.986l-1.498,3.764l-4.184,2.189l-1.868-0.279 l0.646-3.519l-5.149-0.128l-0.132,3.197l3.752,2.556l1.118,3.201l-1.914,1.435l2.147,4.802l-4.922-0.642l1.449,2.525l2.624,1.159 l-1.076,3.62l-4.496,0.37l-1.046-5.002l-5.059-0.479l-3.023,5.591l-1.295,0.17l-2.767-4.632l0.672-5.082L776.181,582l3.329-5.364 l4.908-2.228l3.238-3.971l4.862-11.914L802.149,555.178" class="Kab01 _data4">
    <title>Kupang</title>
  </path>
  <path id="path9421" fill="#FFFFD0" stroke="#646464" stroke-width="0.8504" stroke-linecap="square" stroke-linejoin="bevel" d=" M798.763,575.363l1.352,1.382l-1.37,1.174l-0.997-1.574L798.763,575.363" class="Kab01 _data4">
    <title>Kupang</title>
  </path>
  <path fill="#FFFFD0" stroke="#646464" stroke-width="0.8504" stroke-linecap="square" stroke-linejoin="bevel" d=" M277.916,266.285l1.253,5.651l-1.536-0.438l-0.136,4.595l-1.499,0.51l-1.39,4.545l-3.442,1.657l1.525,7.527l-3.024,0.528 l-2.291-2.159l-2.586,4.122l-4.148,1.329l-1.487,3.22l-0.283,2.741l1.653,2.016l-1.778,1.823l2.907,4.142l1.581,0.536l1.155-1.284 l3.168,3.439l-0.774,5.119l-2.114,1.045l-3.571,5.587l-3.521,0.627l1.831,4.662l-7.479,2.685l-1.23,1.653l1.219,2.997l-1.997,1.963 l-2.566-0.88l-7.894-8.131l-3.201-0.714l-22.639,5.919l-8.049,1.163l-4.669-0.804l-2.907,2l-0.381,1.79l-2.242-0.789l2.072,3.828 l-2.786,0.992l-3.375-2.608l1.578-1.344l-2.088-1.763l1.238-3.59l-3.492-0.906l-1.265,1.079l-0.441-1.989l-2.08,0.4l-0.611-1.291 l-1.854,1.649l-0.653-3.28l-1.593,0.208l0.237-1.673l-3.174-1.415l-0.582-1.861l1.544-1.477l-2.137-1.664l1.94-1.378l-1.854-0.971 l1.137-3.133l-1.311-3.058l2.673-3.976l-0.045-10.963l-2.193-0.978l1.672-2.231l-0.672-2.095l4.579-3.835l0.435-1.979l5.945-2.657 l1.948-4.376l-0.785-1.483l1.113-2.117l-1.706-3.436l-1.801-0.691l-0.559-4.005l3.847-0.494l-0.468,2.718l2.216,0.015l-2.216,2.729 l4.035,1.144l1.136,1.703l4.312-3.217l4.979-1.049l-0.861-1.22l2.175-2.653l1.257,0.763l-0.528,2.216l1.412-0.461l0.351,1.925 l2.307,1.262l3.567-3.707l-2.635-1.544l-0.857-2.303l3.005-0.718l-0.683-2.344l1.321-2.602l4.062,0.328l-1.02,1.009l1.046,0.958 l5.437-3.518l-2.552,3.714l-1.899,0.046l0.212,1.087l6.251-3.02l-1.593,3.934l1.295-0.461l-0.846,1.008l1.079,0.099l1.242-1.288 l0.468,1.084l-2.382,2.242l0.491,1.892l4.235,0.687l2.703-4.058l-1.566-2.333l0.86-8.173l1.695,1.85l2.665-0.012l0.045,2.197 l1.778-1.17l0.936,0.846l0.016-2.711l1.518-2.397l2.284-0.037l-0.363-1.876l2.968-5.364l2.643,0.747l4.096-1.412l3.628-3.254 l5.229-0.351l-1.291,24.307l3.812,4.927l3.525-2.488l1.11,0.627l2.144-2.465L277.916,266.285 M209.018,316.552l1.03,0.944 l0.943-0.88l-0.943,0.88L209.018,316.552" class="Kab16 _data9">
    <title>Manggarai Barat</title>
  </path>
  <path id="path9427" fill="#FFFFD0" stroke="#646464" stroke-width="0.8504" stroke-linecap="square" stroke-linejoin="bevel" d=" M151.724,327.327l2.092,2.503l0.012,3.046l-2.466-0.37l-0.32-1.815l-3.496,0.524L151.724,327.327" class="Kab16 _data9">
    <title>Manggarai Barat</title>
  </path>
  <path id="path9429" fill="#FFFFD0" stroke="#646464" stroke-width="0.8504" stroke-linecap="square" stroke-linejoin="bevel" d=" M137.568,310.468l-0.573,1.23l-0.688-1.14L137.568,310.468" class="Kab16 _data9">
    <title>Manggarai Barat</title>
  </path>
  <path id="path9431" fill="#FFFFD0" stroke="#646464" stroke-width="0.8504" stroke-linecap="square" stroke-linejoin="bevel" d=" M148.256,296.674l4.806,1.216l-0.74,7.621l1.582,0.896l-1.186,0.257l2.197,4.133l0.672-2.54l1.325,0.4l0.067,1.634l0.819-1.676 l3.031-0.895l0.238-1.831l-3.812-3.371l4.076,1.057l0.593,1.748l0.714-5.889l3.401-0.102l0.925,1.302l1.521-1.789l6.779-0.664 l2.152,1.925l-1.027,5.429l-7.108,1.435l-2.144,5.681l-3.304,0.144l-0.105-2.465l-2.428-0.959l-0.268,3.024l-3.322,4.462 l1.363,1.721l4.367,1.228l1.733,2.793l-2.786-0.12l-0.113,1.358l2.88,0.502l-1.275,0.076l0.472,1.4l-2.884,0.559l1.336,1.566 l-4.436,3.881l-3.106-0.265l-0.11-3.598l-2.688-2.544l-3.189,0.476l-3.889,3.114l-1.109-3.114l0.943-2.054l-2.321-1.615l1.664-1.163 l-1.279-2.438l4.741,1.419l-3.05-2.884l3.658-0.022l-2.896-1.28l-0.446-1.657l2.473-1.476l2.258,1.722l0.619-1.491l0.955,1.299 l1.186-1.141l-1.483-5.572l-0.453,2.28l-1.05,0.601l-0.589-1.137l-0.257,1.707l-2.525-1.228l2.616-1.026l0.438-2.881l-4.715-8.444 L148.256,296.674" class="Kab16 _data9">
    <title>Manggarai Barat</title>
  </path>
  <path id="path9433" fill="#FFFFD0" stroke="#646464" stroke-width="0.8504" stroke-linecap="square" stroke-linejoin="bevel" d=" M130.275,296.76l0.562,1.095l-1.562,0.593l-0.483-0.959L130.275,296.76" class="Kab16 _data9">
    <title>Manggarai Barat</title>
  </path>
  <path id="path9435" fill="#FFFFD0" stroke="#646464" stroke-width="0.8504" stroke-linecap="square" stroke-linejoin="bevel" d=" M164.103,290.445l-0.427,1.684l-3.314-0.755L164.103,290.445" class="Kab16 _data9">
    <title>Manggarai Barat</title>
  </path>
  <path id="path9437" fill="#FFFFD0" stroke="#646464" stroke-width="0.8504" stroke-linecap="square" stroke-linejoin="bevel" d=" M157.677,292.133l1.401,0.339l-2.262,0.064L157.677,292.133" class="Kab16 _data9">
    <title>Manggarai Barat</title>
  </path>
  <path id="path9439" fill="#FFFFD0" stroke="#646464" stroke-width="0.8504" stroke-linecap="square" stroke-linejoin="bevel" d=" M156.746,286.726l1.008,0.431l-1.396,1.393L156.746,286.726" class="Kab16 _data9">
    <title>Manggarai Barat</title>
  </path>
  <path id="path9441" fill="#FFFFD0" stroke="#646464" stroke-width="0.8504" stroke-linecap="square" stroke-linejoin="bevel" d=" M174.877,282.388l1.42,1.435l-2.469,0.016L174.877,282.388" class="Kab16 _data9">
    <title>Manggarai Barat</title>
  </path>
  <path id="path9443" fill="#FFFFD0" stroke="#646464" stroke-width="0.8504" stroke-linecap="square" stroke-linejoin="bevel" d=" M152.582,284.08l0.88,0.846l-1.794,2.103l0.604,3.141l-1.975-5.417l1.767,0.479L152.582,284.08" class="Kab16 _data9">
    <title>Manggarai Barat</title>
  </path>
  <path id="path9445" fill="#FFFFD0" stroke="#646464" stroke-width="0.8504" stroke-linecap="square" stroke-linejoin="bevel" d=" M137.286,284.579l1.336,0.672l-1.453,0.445L137.286,284.579" class="Kab16 _data9">
    <title>Manggarai Barat</title>
  </path>
  <path id="path9447" fill="#FFFFD0" stroke="#646464" stroke-width="0.8504" stroke-linecap="square" stroke-linejoin="bevel" d=" M149.233,280.392l0.352,1.381l-1.238,0.491L149.233,280.392" class="Kab16 _data9">
    <title>Manggarai Barat</title>
  </path>
  <path id="path9449" fill="#FFFFD0" stroke="#646464" stroke-width="0.8504" stroke-linecap="square" stroke-linejoin="bevel" d=" M187.157,276.402l-1.718,0.279l0.555-1.299L187.157,276.402" class="Kab16 _data9">
    <title>Manggarai Barat</title>
  </path>
  <path id="path9451" fill="#FFFFD0" stroke="#646464" stroke-width="0.8504" stroke-linecap="square" stroke-linejoin="bevel" d=" M160.52,280.562l-0.86,1.245l-0.914-1.087L160.52,280.562" class="Kab16 _data9">
    <title>Manggarai Barat</title>
  </path>
  <path id="path9453" fill="#FFFFD0" stroke="#646464" stroke-width="0.8504" stroke-linecap="square" stroke-linejoin="bevel" d=" M187.455,276.137l1.737,0.219l-0.771,1.106L187.455,276.137" class="Kab16 _data9">
    <title>Manggarai Barat</title>
  </path>
  <path id="path9455" fill="#FFFFD0" stroke="#646464" stroke-width="0.8504" stroke-linecap="square" stroke-linejoin="bevel" d=" M139.512,269.294l0.091,1.182l-2.416-0.196l-1.306,1.419l0.324-2.386L139.512,269.294" class="Kab16 _data9">
    <title>Manggarai Barat</title>
  </path>
  <path id="path9457" fill="#FFFFD0" stroke="#646464" stroke-width="0.8504" stroke-linecap="square" stroke-linejoin="bevel" d=" M135.965,272.106l0.679,1.022l-2.151,1.661l-0.283-1.499L135.965,272.106" class="Kab16 _data9">
    <title>Manggarai Barat</title>
  </path>
  <path id="path9459" fill="#FFFFD0" stroke="#646464" stroke-width="0.8504" stroke-linecap="square" stroke-linejoin="bevel" d=" M117.81,266.383l2.865,4.153l-1.072,1.937l0.581,2.778l2.122,1.015l2.05-1.188l1.997,2.529l3.341-1.982l1.457,2.552l2.96-3.147 l-0.453,3.408l2.25-2.487l1.457,0.891l-0.234,7.327l-1.676-3.114l-1.857,2.691l1.854,3.511l-0.068,6.229l2.507,1.465l-9.539,1.178 l1.079-3.424l-3.337-2.34l-4.367,6.315l-4.595,0.162l2.035,3.681l4.934-2.295l-2.408,3.023l0.905,1.499l-1.732-0.275l0.238,2.212 l-3.383-0.684l-3.982,4.727l0.275,1.503l2.39,0.328l-0.607,2.2l1.887,0.548l-1.804,3.276l2.144,0.944l-1.74,1.291l0.619,1.763 l3.375-1.329l-4.727,2.394l-6.417-4.994l-2.571,0.215l-2.442,2.469l0.722-2.091l-1.71-1.39l1.88-0.192l0.966-4.104l2.839-0.694 l0.918-7.09l-2.021-1.185l-0.049-3.017l-4.175,1.438l2.597-5.146l-2.529-2.646l2.624-2.114l0.121-2.317l1.627,0.77l2.091-2.34 l2.043,0.237l-0.4-3.752l2.714-0.835l-0.793-2.099l-3.408-1.774l4.379-2.276l1.91,0.348l-3.862-3.258l-1.079-3.915l0.846-1.147 l4.356,1.661l-0.212-3.571L117.81,266.383" class="Kab16 _data9">
    <title>Manggarai Barat</title>
  </path>
  <path id="path9461" fill="#FFFFD0" stroke="#646464" stroke-width="0.8504" stroke-linecap="square" stroke-linejoin="bevel" d=" M232.6,251.091l4.67,1.846l-3.571,0.771l-3.692-1.54L232.6,251.091" class="Kab16 _data9">
    <title>Manggarai Barat</title>
  </path>
  <path id="path9463" fill="#FFFFD0" stroke="#646464" stroke-width="0.8504" stroke-linecap="square" stroke-linejoin="bevel" d=" M216.353,254.571l0.173,1.518l-2.898,0.698l0.992-3.47L216.353,254.571" class="Kab16 _data9">
    <title>Manggarai Barat</title>
  </path>
  <path id="path9465" fill="#FFFFD0" stroke="#646464" stroke-width="0.8504" stroke-linecap="square" stroke-linejoin="bevel" d=" M186.469,258.01l3.356,0.057l-1.967,3.723l-4.84-2.624l0.238-1.253L186.469,258.01" class="Kab16 _data9">
    <title>Manggarai Barat</title>
  </path>
  <path id="path9467" fill="#FFFFD0" stroke="#646464" stroke-width="0.8504" stroke-linecap="square" stroke-linejoin="bevel" d=" M142.517,301.109l0.136,4.893l-1.937,1.117l-1.971-1.985l-3.608,1.868l-0.555,1.786l1.611,2.722l-0.943,0.434l-1.665-3.631 l-1.479,0.86l-0.91-1.665l0.914-1.049l2.186-0.352l0.868-1.623l1.756,0.914l1.2-3.115L142.517,301.109" class="Kab16 _data9">
    <title>Manggarai Barat</title>
  </path>
  <path id="path9469" fill="#FFFFD0" stroke="#646464" stroke-width="0.8504" stroke-linecap="square" stroke-linejoin="bevel" d=" M164.413,277.617l0.864,1.242l-2.469,0.774l-0.597,2.137l0.03-3.609L164.413,277.617" class="Kab16 _data9">
    <title>Manggarai Barat</title>
  </path>
  <path id="path9471" fill="#FFFFD0" stroke="#646464" stroke-width="0.8504" stroke-linecap="square" stroke-linejoin="bevel" d=" M172.533,307.508l1.445,1.59l-1.608,0.396L172.533,307.508" class="Kab16 _data9">
    <title>Manggarai Barat</title>
  </path>
  <path id="path9473" fill="#FFFFD0" stroke="#646464" stroke-width="0.8504" stroke-linecap="square" stroke-linejoin="bevel" d=" M112.397,320.445l0.891,3.484l-1.926-1.646L112.397,320.445" class="Kab16 _data9">
    <title>Manggarai Barat</title>
  </path>
  <path id="path9475" fill="#FFFFD0" stroke="#646464" stroke-width="0.8504" stroke-linecap="square" stroke-linejoin="bevel" d=" M174.22,329.067l2.854,1.095l-0.808,3.598l-1.483,0.668l-3.235-1.253l0.124-2.009L174.22,329.067" class="Kab16 _data9">
    <title>Manggarai Barat</title>
  </path>
  <path id="path9477" fill="#FFFFD0" stroke="#646464" stroke-width="0.8504" stroke-linecap="square" stroke-linejoin="bevel" d=" M780.715,652.581l0.283,1.473l-3.952,1.959l-1.022,2.902l-7.841,2.276L767.084,664l-1.619,0.106l1.128,4.503l-2.59,3.854 l-1.215,5.176l-2.537-1.76l-3.243,2.998l-4.703-3.371l-4.949-0.295l-5.138,2.756l-2.22,4.314l-3.27-1.547l-2.147,2.74l-1.038-1.382 l-6.289,2.046l-3.065-1.521l-4.903,1.964l-3.379,3.896l2.653,1.299l1.027,2.502l-3.624-1.895l-6.505,3.571l-0.381-2.537 l-1.574,1.926l0.196-1.778l-2.11-0.105l-4.515,1.208l-0.718,3.224l-1.937,1.182l-4.25-4.055l-0.186-4.446l1.752-4.53l-1.2-6.248 l-3.515-4.806l1.079-3.511l4.651,1.016l-0.528-2.348l4.141-2.631l6.811-0.612l5.919-1.864l0.166-1.348l2.39,1.661l5.7-0.699 l2.397-1.767l4.401,0.473l1.404-1.654l2.4,0.767l3.217-4.5l2.046-0.366l-0.374-1.348l2.745-1.105l1.109-2.602l2.582-0.219 l-0.079-1.453l1.295,0.008l2.272-3.118l3.397,1.585l4.935-2.691l2.279-2.948l0.649-4.462l2.058-0.412l4.096,2.484l5.024,0.019 l8.562-2.182l0.539-2.865l-6.356,0.528l-3.65,4.01l-1.726-0.027l-3.503-1.079l-1.906-2.892l3.458-2.529l5.318-7.606l3.349-1.408 l0.593,0.88l6.663-2.926l2.212-2.446l5.194-1.378l-0.789-1.42l1.85-2.137l-1.178-2.838l1.876-1.635l4.285,4.104l0.902,2.615 l2.699,0.299l-3.65-0.136l-3.734,2.888l-0.879,2.374l1.684-1.506l-0.034,1.642l0.649-1.166l1.502,1.566l-1.544,0.706l-0.079,2.465 l-1.604,1.661l-0.939-1.465l-3.134,3.605l0.732,1.635l1.899-0.499l-0.026,1.578l1.151-1.585l0.731,2.74l-2.57,2.574l-4.443,0.544 l2.065,2.031l5.964-0.279l2.598,2.095l2.031-0.068l1.615,2.79l0.147,5.376l-3.379,1.661l0.234,2.106l-1.537,1.548l-1.166-1.035 l-2.148,1.582l-2.736-1.631l-2.854,0.955l-1.963-1.623L780.715,652.581" class="Kab15 _data13">
    <title>Rote Ndao</title>
  </path>
  <path id="path9479" fill="#FFFFD0" stroke="#646464" stroke-width="0.8504" stroke-linecap="square" stroke-linejoin="bevel" d=" M735.578,684.839l-0.03,0.939l-0.975-1.374L735.578,684.839" class="Kab15 _data13">
    <title>Rote Ndao</title>
  </path>
  <path id="path9481" fill="#FFFFD0" stroke="#646464" stroke-width="0.8504" stroke-linecap="square" stroke-linejoin="bevel" d=" M717.408,692.645l2.405,0.551l-2.673,3.031l-4.006-0.358l0.4-3.462l2.092,1.279L717.408,692.645" class="Kab15 _data13">
    <title>Rote Ndao</title>
  </path>
  <path id="path9483" fill="#FFFFD0" stroke="#646464" stroke-width="0.8504" stroke-linecap="square" stroke-linejoin="bevel" d=" M667.831,672.577l3.055,5.81l-7.939-4.666L667.831,672.577" class="Kab15 _data13">
    <title>Rote Ndao</title>
  </path>
  <path id="path9485" fill="#FFFFD0" stroke="#646464" stroke-width="0.8504" stroke-linecap="square" stroke-linejoin="bevel" d=" M679.858,676.719l1.812,0.66l-2.45,1.238l-0.688-1.125L679.858,676.719" class="Kab15 _data13">
    <title>Rote Ndao</title>
  </path>
  <path id="path9487" fill="#FFFFD0" stroke="#646464" stroke-width="0.8504" stroke-linecap="square" stroke-linejoin="bevel" d=" M723.245,691.044l1.581,0.261l-0.094,1.643l-1.752,1.064l-2.374-2.321L723.245,691.044" class="Kab15 _data13">
    <title>Rote Ndao</title>
  </path>
  <path id="path9489" fill="#FFFFD0" stroke="#646464" stroke-width="0.8504" stroke-linecap="square" stroke-linejoin="bevel" d=" M685.774,667.82l2.189,0.204l-0.166,1.261l-3.915,1.424l-2.084-0.631l0.378-1.744L685.774,667.82" class="Kab15 _data13">
    <title>Rote Ndao</title>
  </path>
  <path id="path9491" fill="#FFFFD0" stroke="#646464" stroke-width="0.8504" stroke-linecap="square" stroke-linejoin="bevel" d=" M792.795,618.971l0.046,1.288l-1.016-0.937L792.795,618.971" class="Kab15 _data13">
    <title>Rote Ndao</title>
  </path>
  <path id="path9493" fill="#FFFFD0" stroke="#646464" stroke-width="0.8504" stroke-linecap="square" stroke-linejoin="bevel" d=" M797.736,619.629l2.484,0.17l-0.389,3.243l-1.117-0.68l-8.509,9.188l-1.431-2.802l1.54-0.856l0.536,0.876l0.818-3.043l2.367-1.453 l0.479-4.081L797.736,619.629" class="Kab15 _data13">
    <title>Rote Ndao</title>
  </path>
  <path id="path9495" fill="#FFFFD0" stroke="#646464" stroke-width="0.8504" stroke-linecap="square" stroke-linejoin="bevel" d=" M702.618,701.482l1.767,1.525l0.846,3.525l-2.054,1.59l-5.21-4.206l-0.589-2.499L702.618,701.482" class="Kab15 _data13">
    <title>Rote Ndao</title>
  </path>
  <path id="path9497" fill="#FFFFD0" stroke="#646464" stroke-width="0.8504" stroke-linecap="square" stroke-linejoin="bevel" d=" M490.761,638.712l-1.574,3.012l-8.773,3.844l-9.479-1.661l6.569-5.508L490.761,638.712" class="Kab21 _data14">
    <title>Sabu Raijua</title>
  </path>
  <path id="path9499" fill="#FFFFD0" stroke="#646464" stroke-width="0.8504" stroke-linecap="square" stroke-linejoin="bevel" d=" M540.353,634.23l-8.335,7.169l-6.429,1.336l-7.215-3.25l-7.949,1.416l-1.805-2.05l-9.34-4.334l19.887-11.528l5.647-1.99l2.503-9.128 l10.212-4.628l9.8,3.922l5.681,0.117l1.76,3.64l-2.515,4.397l0.623,5.791l-1.872,4.783l-4.908,0.061L540.353,634.23" class="Kab21 _data14">
    <title>Sabu Raijua</title>
  </path>
  <path id="path9501" fill="#FFFFD0" stroke="#646464" stroke-width="0.8504" stroke-linecap="square" stroke-linejoin="bevel" d=" M429.693,676.341l0.883,1.087l-2.291-0.66L429.693,676.341" class="Kab21 _data14">
    <title>Sabu Raijua</title>
  </path>
  <path id="path9503" fill="#FFFFD0" stroke="#646464" stroke-width="0.8504" stroke-linecap="square" stroke-linejoin="bevel" d=" M577.51,287.255l4.085,1.722l9.66,10.249l11.706,3.76l4.874-1.657l1.989-2.4l5.893-1.22l14.836-1.404l4.021,0.978l7.44-10.589 l0.075-3.533l-3.632-1.582l-3.062-4.047l2.122-3.525l5.994-1.329l0.959,1.121l0.562-1.732l2.167,0.431l3.911-6.029l3.681-0.939 l0.856-5.236l1.884,1.095l3.806-3.023l4.386,1.479l4.704-0.702l-1.189,4.655l1.4,4.341l-1.933,3.605l2.299,4.276l-3.768,5.98 l-1.574,7.319l-1.237,11.189l0.985,1.623l-4.202,0.487l-1.951,2.661l-2.424-1.087l-2.948,2.272l-5.077,0.668l-3.013,5.994 l-6.977,3.541l-3.741,0.095l-1.777,1.857l-5.572,0.008l-2.22,1.891l-6.587,0.034l-1.118,1.337l-5.115-2.009l-5.832-0.015l-5.504,2.4 l-7.301-2.151l-7.112,1.352l-3.59-3.458l-10.253-0.03l-5.338,2.02l-1.54,3.073l-3.869,1.49l-3.636,4.47l-5.994,1.956l-1.023-1.744 l0.54-6.402l-3.737-1.261l-0.797,1.71l-2.566-1.673l-4.281-6.64l5.436-7.124l-0.569-4.537l2.827-3.194l-1.582-1.581l3.73-1.08 l-0.809-5.617l1.461-1.669l-1.947-2.884l2.238-1.782l1.726-4.126l1.668-0.498l1.435,2.994l3.33-0.363l0.815-1.577l2.789,1.86 l1.103-1.559l2.155,0.981l0.981,2.774l1.469-0.559l-0.634-2.076l2.684,0.219L577.51,287.255" class="Kab08 _data15">
    <title>Sikka</title>
  </path>
  <path id="path9505" fill="#FFFFD0" stroke="#646464" stroke-width="0.8504" stroke-linecap="square" stroke-linejoin="bevel" d=" M575.861,211.4l-0.109,2.408l-4.383,0.441l1.287-2.174L575.861,211.4" class="Kab08 _data15">
    <title>Sikka</title>
  </path>
  <path id="path9507" fill="#FFFFD0" stroke="#646464" stroke-width="0.8504" stroke-linecap="square" stroke-linejoin="bevel" d=" M641.07,263.756l1.228,3.096l-3.032,0.709l-0.611-2.404L641.07,263.756" class="Kab08 _data15">
    <title>Sikka</title>
  </path>
  <path id="path9509" fill="#FFFFD0" stroke="#646464" stroke-width="0.8504" stroke-linecap="square" stroke-linejoin="bevel" d=" M617.167,266.349l6.04,3.352l1.291-2.084l1.265,2.333l-1.548,1.518l0.249,3.209l-4.469,3.582l-5.848-1.649l-3.474-4.152 l-0.071-4.877L617.167,266.349" class="Kab08 _data15">
    <title>Sikka</title>
  </path>
  <path id="path9511" fill="#FFFFD0" stroke="#646464" stroke-width="0.8504" stroke-linecap="square" stroke-linejoin="bevel" d=" M630.837,271.634l0.494,2.922l-2.794-0.648l-0.109,1.154l-2.639-1.234L630.837,271.634" class="Kab08 _data15">
    <title>Sikka</title>
  </path>
  <path id="path9513" fill="#FFFFD0" stroke="#646464" stroke-width="0.8504" stroke-linecap="square" stroke-linejoin="bevel" d=" M607.276,252.098l1.386,0.981l-2.646,3.023l-5.481-0.132l1.586-2.291l2.827,0.275L607.276,252.098" class="Kab08 _data15">
    <title>Sikka</title>
  </path>
  <path id="path9515" fill="#FFFFD0" stroke="#646464" stroke-width="0.8504" stroke-linecap="square" stroke-linejoin="bevel" d=" M194.699,452.046l3.5-5.142l-1.914-1.371l-3.205-7.293l2.805-6.281l-1.287-2.692l-4.96-1.407l-2.027-4.625l4.594-3.076l7.6-8.634 l3.05,6.821l9.227,11.465l4.609,2.507l2.544,5.526l6.048,6.878l7.493,2.677l9.701-2.937l4.421,3.861l2.677,6.867l0.543,10.532 l3.654,9.305l1.186-1.552l7.056,0.732l3.692,4.723l-0.676,1.027l8.222-5.372l4.19,0.74l-1.038-0.805l0.921-1.038l12.982-3.926 l2.39,1.94l4.507,10.249l3.017,1.038l2.918-0.929l3.722,1.985l2.903,4.617l3.401,1.224l1.374,6.296l3.424,3.64l0.797,4.938 l8.195,13.719l6.018,3.729l5.794,0.54l11.835,9.128l5.111,8.855l-1.279,11.62l-3.957,4.812l-9.913,4.979l-3.141,6.188l-9.233,5.854 l-7.746,0.789l-4.628,4.1l-3.771-0.271l-4.043-2.175l-6.078,0.234l-3.183,2.816l-4.756,1.121l-2.163,6.663l-3.205,2.601 l-10.86-8.135l-7.041-3.504l-7.769,0.329l-1.499,1.147l-9.003-2.355l-4.243,1.721l-6.625-4.266l-2.529,1.884l-9.279-10.638 l-4.81-0.105l0.306-1.616l-6.617-7.274l-6.433-0.253l0.514-3.329l2.02-1.106l-0.718-3.193l-3.99-7.033l-8.267-6.647l1.204-2.608 l-0.74-1.722l-3.179,1.125l-4.484-1.269l-0.015-3.997l-3.93,1.321l-1.854-1.503l0.445-2.435l-1.877-2.159l-4.824,1.071l-4.681-2.435 l-4.065,1.362l-2.669-4.428l-10.325-5.73l-1.748-3.179l-1.902,0.604l-2.061-2.729l8.074,2.072l1.774-0.627l1.008-14.458l2.035-3.669 l-3.749-3.28l-0.257-4.84l3.42-2.918l3.168,1.049l13.159-1.66l1.034-6.392l-1.022-1.993l1.57-0.955l-1.726-1.736l0.884-0.611 l-0.797-3.545l2.054-0.646l0.846-3.106l2.001-0.234l0.547-3.699l2.325-3.391L194.699,452.046" class="Kab12 _data19">
    <title>Sumba Timur</title>
  </path>
  <path id="path9517" fill="#FFFFD0" stroke="#646464" stroke-width="0.8504" stroke-linecap="square" stroke-linejoin="bevel" d=" M230.641,592.868l-1.604-0.332l3.371-0.914L230.641,592.868" class="Kab12 _data19">
    <title>Sumba Timur</title>
  </path>
  <path id="path9519" fill="#FFFFD0" stroke="#646464" stroke-width="0.8504" stroke-linecap="square" stroke-linejoin="bevel" d=" M247.232,587.715l0.121,1.989l-2.22,1.133l-5.051-0.933L247.232,587.715" class="Kab12 _data19">
    <title>Sumba Timur</title>
  </path>
  <path id="path9521" fill="#FFFFD0" stroke="#646464" stroke-width="0.8504" stroke-linecap="square" stroke-linejoin="bevel" d=" M498.383,337.942l-3.039,1.585l0.2,5.935l-3.982,2.616l-2.438-2.438l3.005-7.184l-0.631-2.076l-12.287-7.011l-3.782,2.238 l-22.39-2.657l0.403-8.468l-3.582-3.11l0.14-1.781l6.135-7.735l2.476,0.178l2.08-2.847l2.424-0.022l3.711-2.643l6.221-1.008 l-2.038-2.673l1.604-1.521l-0.476-2.291l2.106,1.026l0.664-2.979l1.93-1.431l4.756-0.767l-0.166-1.665l-2.477-1.615l0.823-3.658 l7.014,4.802l-1.684-3.103l0.204-5.825l0.717-4.666l1.072,0.805l0.993-2.148l0.615,1.057l1.22-1.136l2.578,1.257l-1.283,1.42 l0.812,2.038l2.261,0.245l1.321-1.801l2.703,3.775l7.904-2.99l10.597,1.031l0.192,1.438l2.159,0.31l5.263-1.816l2.155-3.072 l4.738,2.872l7.146-0.524l3.175-2.261l4.318-6.6l0.676,0.544l-2.02,1.74l1.627,0.876l-0.393,1.861l4.658-4.568l1.435,1.068 l5.546-2.167l-0.268,2.968l-1.375,0.257l0.729,1.332l-1.453-0.498l1.518,1.476l-1.695,2.492l0.544,3.125l-6.097,7.75l1.956,2.862 l-1.461,1.668l0.808,5.617l-3.729,1.08l1.581,1.582l-2.827,3.193l0.57,4.537l-5.433,7.029l4.277,6.734l2.566,1.673l0.797-1.71 l3.764,1.299l-0.566,6.364l1.023,1.744l-12.329,4.417l-6.357-0.619l-4.364,1.215l-2.121,2.771l-4.338,1.261l-1.717,2.11 l-6.803,2.046l-6.867-0.993l-3.201-3.11L498.383,337.942" class="Kab09 _data2">
    <title>Ende</title>
  </path>
  <path id="path9523" fill="#FFFFD0" stroke="#646464" stroke-width="0.8504" stroke-linecap="square" stroke-linejoin="bevel" d=" M503.63,243.122l3.711,0.86l2.594,4.616l-0.68,3.118l-2.477,1.79l-6.028-0.544l-2.627-2.088l1.415-5.73L503.63,243.122" class="Kab08 _data15">
    <title>Sikka</title>
  </path>
  <path id="path9525" fill="#FFFFD0" stroke="#646464" stroke-width="0.8504" stroke-linecap="square" stroke-linejoin="bevel" d=" M543.049,336.262l-2.261,0.253l2.604-1.216L543.049,336.262" class="Kab09 _data2">
    <title>Ende</title>
  </path>
  <path id="path9527" fill="#FFFFD0" stroke="#646464" stroke-width="0.8504" stroke-linecap="square" stroke-linejoin="bevel" d=" M472.611,339.569l1.064,5.613l-3.167,3.16l-1.412-3.749l2.491-1.819l-0.581-3.59L472.611,339.569" class="Kab09 _data2">
    <title>Ende</title>
  </path>
  <path id="path9529" fill="#FFFFD0" stroke="#646464" stroke-width="0.8504" stroke-linecap="square" stroke-linejoin="bevel" d=" M821.081,271.392l-1.688,2.224l5.006,6.028l0.823,4.288l-0.604,1.979l-6.405,5.002l-4.987-1.476l-2.341-3.7l0.163-3.171 l-2.329-1.317l-7.169,3.311l-4.221,7.222l-5.346,1.562l-6.817-3.827l-1.695-3.998l-4.492-2.246l-4.454,3.775l-8.551-1.76 l-3.401,2.662l-0.075-3.043l-2.317-0.295l0.785-4.141l3.454,0.053l9.936-8.116l7.697-10.808l6.852-2.163l2.627-2.835l6.754-0.427 l7.029-5.229l-3.156-4.051l-6.614-3.885l-11.853,2.197l7.595-7.784l3.557-1.245l2.4,2.688l2.001,0.577l0.219-1.524l3.439,1.54 l6.828-5.225l7.199-1.03l3.22,0.985l0.774,1.381l-2.446,1.507l-0.883,4.756l-1.673,2.877l-2.861,1.559l-3.077,4.633l0.59,2.722 l-1.435,0.902l3.231-1.382l6.658,3.062l5.142-2.046l2.632-4.051l-1.269-3.602l-2.903-0.313l0.366-3.854l4.927,0.023l-0.607,5.084 l6.1-4.469l-1.457-7.739l-3.56-1.265l-0.128-3.341l2.272,0.781l5.338-1.132l1.69,1.771l-1.415,4.296l6.101,0.962l4.48-3.224 l-2.442-1.892l-0.2-1.808l4.432-0.502l7.909-7.347l2.189-0.354l10.351,5.662l2.197,4.27l1.857-2.982l6.164,0.695l3.5,4.703 l-1.196,2.48l-11.944,3.106l-1.424,1.661l-7.131-2.121l-5.085,2.695l-5.077,6.308l-1.732,5.18l-4.417,4.828l-1.291,4.798 l-2.993,2.729l-4.1-0.113l0.773-2.272l-1.117-1.593l-4.391-0.144l-2.095,3.238L821.081,271.392" class="Kab14 _data6">
    <title>Lembata</title>
  </path>
  <path id="path9531" fill="#FFFFD0" stroke="#646464" stroke-width="0.8504" stroke-linecap="square" stroke-linejoin="bevel" d=" M826.718,155.473l0.988,0.034l-0.966,3.794l-3.077-0.566l0.732-2.182l-1.136-0.34L826.718,155.473" class="Kab14 _data6">
    <title>Lembata</title>
  </path>
  <path id="path9533" fill="#FFFFD0" stroke="#646464" stroke-width="0.8504" stroke-linecap="square" stroke-linejoin="bevel" d=" M304.379,278.44l-6.135,11.34l2.793,6.414l-0.49,6.078l-5.466,1.189l-4.021,4.831l5.644,7.784l1.204,9.441l-0.812,1.363l2.507,6.285 l-13.783-0.819l-6.825,2.016l-5.251-1.664l-0.517,1.547l-4.617,1.604l-4.142,3.681l-2.657-1.937l-3.519,1.627l-8.323-2l1.94-2.062 l-1.193-3.069l3.013-2.944l5.674-1.317l-2.023-4.304l3.715-0.985l3.57-5.587l2.043-0.909l1.099-4.202l-3.421-4.492l-1.154,1.283 l-1.533-0.502l-2.665-3.575l1.483-2.419l-1.665-2.058l0.797-4.757l5.134-2.495l2.616-4.134l2.262,2.175l3.005-0.503l-1.503-7.558 l3.443-1.657l1.389-4.545l1.499-0.51l0.14-4.602l1.532,0.445l-1.079-1.136l0.909-2.956l-1.483-2.012l-3.446,0.992l-4.009-0.853 l-2.145,2.465l-1.11-0.627l-3.525,2.488l-3.812-4.927l1.291-24.307l7.421,0.12l5.35,2.27l7.157-2.387l1.971-6.263l1.582-0.551 l2.491,1.423l1.412,6.161l2.518,1.729l4.704-0.31l-0.291,3.809l-1.868,0.389l-0.503,10.97l6.074,4.599l3.677,7.195L304.379,278.44" class="Kab11 _data8">
    <title>Manggarai</title>
  </path>
  <path id="path9535" fill="#FFFFD0" stroke="#646464" stroke-width="0.8504" stroke-linecap="square" stroke-linejoin="bevel" d=" M262.396,342.959l0.771,4.296l-5.356,2.582l-2.541-1.514l-0.57-1.008l4.36-5.315L262.396,342.959" class="Kab11 _data8">
    <title>Manggarai</title>
  </path>
  <path id="path9537" fill="#FFFFD0" stroke="#646464" stroke-width="0.8504" stroke-linecap="square" stroke-linejoin="bevel" d=" M319.01,339.497l-5.957-6.854l-14.235,0.057l-1.722-5.821l-0.325-10.601l-5.711-7.987l4.021-4.832l5.466-1.189l0.494-6.078 l-2.793-6.414l6.134-11.192l-1.933-8.369l-3.677-7.195l-6.074-4.598l0.635-11.45l1.736,0.087l0.151-3.948l6.243-3.473l5.036,4.786 l5.832-0.698l2.175-3.322l-2.118-1.804l0.117-2.054l10.578,5.915l1.098,2.827l2.62,0.718l0.144,2.325l2.046,1.095l4.356-0.551 l0.188,1.744l2.922,2.117l2.609-0.094l2.329-2.073l3.442,1.578l4.466-1.166l7.853,3.258l4.741-1.412l0.253,3.869l1.619-3.212 l4.87,0.543l3.171-1.382l1.635,3.854l-1.265,5.032l-2.28,1.186l-2.778,6.244l-0.313,2.419l1.978,2.526l-4.715,2.046l-2.295-1.099 l-2.22,3.771l-2.782,0.735l-1.17,1.88l1.049,3.893l3.911,4.345l-2.363,1.669l1.597,3.631l1.801,0.967l-0.268,2.072l1.684,2.462 l-0.736,2.971l1.212,1.103l-2.812,8.021l-5.225,2.062l2.039,6.568l-2.213,2.657l0.34,3.428l-0.909,1.59l-0.981-0.476l-1.778,5.48 l-2.212,1.031l1.555,1.793l-5.345,0.445l-0.616,5.599l-1.959,2.465l-3.446,0.913l-8.8-1.883l-2.269-1.91l-6.561-0.321 L319.01,339.497" class="Kab20 _data10">
    <title>Manggarai Timur</title>
  </path>
  <path id="path9539" fill="#FFFFD0" stroke="#646464" stroke-width="0.8504" stroke-linecap="square" stroke-linejoin="bevel" d=" M404.884,334.265l-1.604-5.485l-4.756-5.727l1.544-2.175l-0.004-4.187l1.072,0.374l0.755-2.548l5.806-2.801l-3.171-1.608l-2.446,0.4 l-1.521-2.571l-3.394-1.479l-1.208-1.404l-0.147-4.866l9.261-4.621l-0.838-1.162l2.449-3.413l-0.087-3.446l6.995-6.859l-0.053-2.062 l-3.771-3.778l3.13-3.167l-1.14-3.194l3.058-0.479l4.401,4.031l4.673,1.257l4.127-0.842l6.443,3.824l0.352-0.789l6.164,11.227 l4.413,2.809l5.979,1.401l2.424,3.487l0.31-1.279l1.819,0.306l5.323-4.387l2.457,0.582l1.604,2.88l2.582-0.438l-0.14,3.612 l2.276,1.514l-1.34,0.993l2.525,0.004l2.23,2.729l-12.748,4.254l-0.981,2.076l-3.575,0.593l-3.25,2.941l-3.171,5.563l3.726,4.111 l-0.399,8.482l-4.395-0.804l-1.937,1.302l-1.653,4.799l0.219,9.215l-4.587,4.586l-7.342,0.389l-5.157-3.616l-1.74,0.4l-0.324,1.518 l-1.955-1.442l-1.993,1.121l-1.771-1.129l-4.232,0.892l-2.646-1.544l-7.581,2.166l-4.126-3.967l1.114-3.266l3.159-2.167 L404.884,334.265" class="Kab17 _data11">
    <title>Nagekeo</title>
  </path>
  <path id="path9541" fill="#FFFFD0" stroke="#646464" stroke-width="0.8504" stroke-linecap="square" stroke-linejoin="bevel" d=" M382.551,356.696l-12.257-3.922l-10.136-8.132l-3.816-8.629l-2.13-0.985l-2.926,1.476l-1.615-1.396l2.276-1.424l1.774-5.48 l0.981,0.476l0.909-1.59l-0.339-3.428l2.2-2.597l-1.88-6.999l5.077-1.695l2.812-8.021l-1.212-1.103l0.736-2.971l-1.684-2.462 l0.269-2.072l-1.801-0.967l-1.597-3.631l2.362-1.669l-3.91-4.345l-1.042-3.889l1.174-1.872l2.782-0.736l2.22-3.771l2.295,1.099 l4.862-2.269l-2.121-2.303l0.31-2.42l2.778-6.243l2.279-1.186l0.325-3.715l2.088-1.359l-1.691-4.673l6.55,1.121l-0.997,3.307 l-2.321-0.868l-0.275,1.103l2.057,2.121l1.643-1.435l2.099,3.658l2.201-0.664l2.283,3.771l6.822-0.573l8.833,3.02l4.768-0.66 l3.492,3.069l1.706-0.299l1.163,2.861l-3.152,3.5l3.771,3.778l0.053,2.062l-6.995,6.859l0.087,3.446l-2.45,3.412l0.838,1.163 l-9.26,4.621l0.147,4.866l1.208,1.404l3.394,1.479l1.521,2.57l2.446-0.399l3.171,1.607l-5.806,2.802l-0.756,2.548l-1.071-0.374 l0.003,4.187l-1.544,2.179l4.757,5.727l-0.306,1.86l3.027,6.301l-3.069,2.62l-1.113,3.266l4.039,4.586l-10.966,5.051l-2.975,2.843 L382.551,356.696" class="Kab10 _data12">
    <title>Ngada</title>
  </path>
  <path id="path9543" fill="#FFFFD0" stroke="#646464" stroke-width="0.8504" stroke-linecap="square" stroke-linejoin="bevel" d=" M384.181,256.379l-0.464,2.021l1.801,0.555l-3.99,1.012l-1.167-2.896l1.786,0.747L384.181,256.379" class="Kab10 _data12">
    <title>Ngada</title>
  </path>
  <path id="path9545" fill="#FFFFD0" stroke="#646464" stroke-width="0.8504" stroke-linecap="square" stroke-linejoin="bevel" d=" M122.646,475.824l-2.495,4.964l7.973,0.17l3.031,1.967l-4.832,6.305l-0.061,4.092l-8.671-1.955l-1.394,2.204l-5.179,1.054 l-1.212,4.62l-2.578,1.562l-2.152-0.486l-1.585-3.201l-3.972-2.703l-5.545,1.046l-2.836-3.703l-7.803,0.717l-6.342-1.854 l-3.326,1.091l-2.355,2.537l-1.921-3.009l-9.684-2.548l-0.974-1.374l3.636-4.225l3.216-1.4l2.424-4.704l3.605-1.593l1.607-0.147 l3.292,5.018l3.11,2.155l4.938-1.888l2.793,0.993l2.646-0.918l6.606-10.396l1.619,0.875l2.103-1.838l1.979,0.457l1.275-2.968 l6.795-6.149l-3.548-3.733l0.396-2.771l-3.085-3.632l-0.883-8.399l0.902-6.127l2.876-6.138l2.484-1.521l1.299,0.008l0.358,5.67 l7.742,14.764l-0.898,1.797l1.827,4.568l9.815-4.761l-1.899,10.589l-5.919,7.07l1.4,5.051L122.646,475.824" class="Kab13 _data16">
    <title>Sumba Barat</title>
  </path>
  <path id="path9547" fill="#FFFFD0" stroke="#646464" stroke-width="0.8504" stroke-linecap="square" stroke-linejoin="bevel" d=" M107.044,429.792l-3.416,7.398l-0.4,4.893l0.925,8.373l3.084,3.632l-0.396,2.771l3.549,3.733l-6.795,6.149l-1.276,2.968 l-1.978-0.457l-2.103,1.838l-1.62-0.875l-4.968,9.177l-3.167,1.857l-3.729-0.74l-5.206,1.884l-3.023-2.125l-3.254-4.987 l-1.646,0.117l-3.604,1.593l-2.424,4.704l-3.217,1.4l-3.635,4.225l-3.549-0.461l-11.17-6.965l-6.859-11.544l-10.038-8.724 l2.616-7.577l8.057-9.634l9.207-5.043l9.939-0.94l10.577-7.172l5.059-0.838l4.595,2.815l5.571-3.345l7.916-2.465l4.621,2.446 L107.044,429.792" class="Kab19 _data17">
    <title>Sumba Barat Daya</title>
  </path>
  <path id="path9549" fill="#FFFFD0" stroke="#646464" stroke-width="0.8504" stroke-linecap="square" stroke-linejoin="bevel" d=" M120.008,455.061l-1.979-4.553l0.898-1.797l-1.619-1.261l-6.301-14.583l-0.181-4.59l1.868,0.668l3.865-2.681l4.334-0.615 l9.449,3.356l9.527-4.682l7.735-0.872l9.49,6.312l12.877,0.559l1.985,1.902l3.575,0.461l12.133-9.597l1.975,4.769l5.624,2.076 l0.366,3.288l-2.548,5.017l5.036,9.079l-1.348,0.472l0.482,1.416l-1.607,0.188l-0.386,2.722l-3.857,0.019l-2.325,3.391l-0.548,3.699 l-2.001,0.234l-0.846,3.106l-2.054,0.646l0.797,3.545l-0.883,0.611l1.725,1.736l-1.57,0.955l1.02,1.809l-0.774,6.263l-13.412,1.975 l-3.167-1.05l-3.515,3.11l0.351,4.647l3.749,3.28l-2.035,3.669l-1.008,14.459l-1.159,0.482l-8.626-2.506l2.545-2.371l-0.959-1.918 l-1.619-0.011l0.668-2.375l-2.877-2.159l-1.944,0.178l-0.743,2.612l-4.27,1.287l-1.193-1.805l1.182,0.144l1.133-2.099l-0.755-2.375 l-4.862,2.394l-1.819-2.861l-5.312,0.619l-1.016-2.382l-1.967,2.461l-4.428-1.064l-0.559-5.243l4.768-6.531l-2.971-1.74 l-5.878,0.445l-2.314-1.245l3.134-3.674l-1.212-8.509l5.919-7.07l1.899-10.589L120.008,455.061" class="Kab18 _data18">
    <title>Sumba Tengah</title>
  </path>
  <path id="path9551" fill="#FFFFD0" stroke="#646464" stroke-width="0.8504" stroke-linecap="square" stroke-linejoin="bevel" d=" M1008.238,526.605l-8.883,5.326l-3.48,4.123l-6.123,1.378l-2.552,3.058l-1.186,5.447l-3.035,5.36l-5.247,5.065l-11.771,7.361 l-10.215,1.404l-22.167-1.69l1.023-3.111l-1.843-0.211l1.151-1.287l-0.69-1.046l-1.963,0.476l1.521-2.432l-2.778-3.133l1.627-2.337 L923.95,543l-2.129-0.521l-1.483-2.911l0.426-1.075l3.398,0.094l-6.837-7.157l-4.734,0.095l-2.064-2.114l-0.668-7.01l1.801-7.339 l-1.197-8.656l1.544-3.602l-4.553-8.754l3.447-3.737l0.438-3.877l2.518-1.408l1.035-3.477l-4.413-9.199l0.818-3.156l-2.03-4.397 l5.391-3.104l1.805-2.722l4.639,2.076l1.903-2.072l-4.179-8.958l-2.858-2.782l0.815-2.062l4.092,0.668l6.833,6.018l1.684-1.125 l-0.951-3.715l2.058,0.337l6.274,6.953l-4.07,2.137l2.039,3.794l1.661-2.938l5.277,1.643l2.23,2.93l4.866,0.332l1.574,3.529 l5.678-1.034l1.854,1.827l1.479-1.174l6.655,1.672l2.579-0.978l4.205,4.179l2.072-0.891l-0.589,3.624l6.018,1.872l4.19,2.979 l2.382-0.464l2.242-2.745l2.582-0.094l3.632-4.591l6.01-0.589l3.133-4.677l1.963-0.216l0.755,4.7l2.359,2.525l6.226,0.219 l2.359,1.76l5.239-3.205l3.1-3.786l4.391,0.347l2.17,3.379l-1.302,3.141l4.806,3.899l-3.93,15.066l-0.054,3.816l1.967,1.635 l0.087,1.914l-8.04,9.895l-2.062,5.526l-8.932,5.613l-4.454,0.993L1008.238,526.605" class="Kab03 _data20">
    <title>Timor Tengah Selatan</title>
  </path>
  <path id="path9553" fill="#FFFFD0" stroke="#646464" stroke-width="0.8504" stroke-linecap="square" stroke-linejoin="bevel" d=" M1035.875,383.544l0.668,5.414l1.054,0.241l-3.005,3.885l1.947,0.955l-0.185,4.413l2.722,2.752l3.25,11.86l-1.898,2.488l0.688,3.042 l-1.39,2.62l-6.678,3.114l1.407,3.126l-1.071,2.084l-5.817,2.805l0.581,2.189l2.685,1.461l-1.058,8.814l-2.197-0.434l-0.245,2.366 l-2.477,0.103l-2.718,3.001l-2.691,0.656l1.358,1.703l1.574-0.635l3.152,8.634l-3.209,0.328l-2.099-1.378l-3.602,1.155l-1.842,4.277 l-5.157-1.004l-5.152,1.072l-3.134,4.677l-6.492,0.838l-2.058,3.5l-3.941,1.095l-2.125,2.665l-2.231,0.385l-4.19-2.979l-6.017-1.872 l0.589-3.624l-2.072,0.891l-4.206-4.179l-2.578,0.978l-6.655-1.672l-1.479,1.174l-1.854-1.827l-5.678,1.034l-1.574-3.529 l-4.866-0.332l-2.231-2.93l-5.277-1.643l-1.661,2.938l-2.038-3.794l4.081-2.069l-2.511-3.404l-7.776-5.38l-2.774-3.888l-2.979,0.113 l-0.378-1.431l-8.505-5.149l0.483-1.431l4.096,0.109l2.442,3.394l2.722,0.136l2.096-1.419l1.026-4.202l8.403-4.938l7.485,5.146 l1.823,2.861l0.449,3.719l2.187,2.933l-1.518,8.86l3.189-0.038l0.801-1.574l2.525,0.404l4.45-2.235l2.163,0.412l0.302-3.62 l1.442-0.888l-2.816-4.058l0.227-1.967l4.142-2.005l-1.469-1.718l2.56-0.898l-1.076-3.511l0.989-3.318l1.684,0.631l3.371-4.047 l4.972-0.54l0.302-3.307l3.844-2.567l-1.386-5.768l1.778-2.744l0.622-7.143l2.466-1.782l-1.178-3.99l9.294,2.062l1.435-1.756 l3.847,0.272l1.971-2.296l7.398-1.876l4.021-4.296l5.293-1.759l2.785-4.13l1.869-6.904l3.096-0.506l2.442,1.389l9.565-6.813 l2.027,0.585l1.2,5.5l2.216,2.28L1035.875,383.544" class="Kab04 _data21">
    <title>Timor Tengah Utara</title>
  </path>
  <path id="path9555" fill="#FFFFD0" stroke="#646464" stroke-width="0.8504" stroke-linecap="square" stroke-linejoin="bevel" d=" M817.752,564.936l3.582-0.03l10.313-5.353l4.345,0.895l3.851-3.363l1.567,5.364l-1.216,1.827l2.129,3.956l-0.306,1.521l-6.414,3.507 l2.582,1.106l0.306,1.431l-4.382-0.57l-1.521,1.219l-0.612,1.521l1.827,2.436l0.914,5.474l-6.999,2.435l-2.435-2.736l-1.216-6.086 l2.435-3.043l-2.74-0.306l-5.474,5.783l-1.22-7.912l-2.193-1.411l0.479-6.021L817.752,564.936" class="Kab60 _data5">
    <title>Kota Kupang</title>
  </path>
  <path d="M 1080.895 431.419 L 1075.879 425.96 L 1075.962 420.569 L 1072.243 419.094 L 1068.011 415.458 L 1067.177 418.078 L 1064.429 420.951 L 1064.429 422.2 L 1059.929 419.95 L 1059.177 418.701 L 1056.927 417.7 L 1053.802 418.202 L 1046.928 415.201 L 1044.802 414.828 L 1041.558 413.957 L 1040.46 415.498 L 1041.115 418.594 L 1039.347 421.664 L 1033.048 424.329 L 1034.456 427.455 L 1033.157 429.8 L 1027.566 432.344 L 1028.147 434.533 L 1030.832 435.994 L 1029.774 444.808 L 1027.578 444.375 L 1027.332 446.741 L 1024.855 446.844 L 1022.137 449.844 L 1019.446 450.501 L 1020.805 452.204 L 1022.38 451.569 L 1025.531 460.203 L 1022.323 460.531 L 1020.223 459.153 L 1016.623 460.308 L 1014.78 464.586 L 1006.63 464.264 L 1005.943 466.243 L 1007.589 469.984 L 1009.548 471.664 L 1015.773 471.883 L 1016.332 473.321 L 1018.566 473.612 L 1026.471 466.651 L 1030.941 467.073 L 1033.032 470.377 L 1031.73 473.517 L 1036.536 477.417 L 1032.605 492.483 L 1032.552 496.3 L 1034.765 499.709 L 1044.029 487.481 L 1049.291 483.382 L 1056.966 480.81 L 1064.47 473.756 L 1066.014 461.373 L 1065.177 459.516 L 1066.403 459.599 L 1072.047 451.253 L 1082.236 443.4 L 1080.673 440.067 L 1080.895 431.419 Z" fill="#FFFFD0" stroke="#646464" stroke-linecap="square" stroke-linejoin="bevel" style="stroke-width: 0.85px;" class="Kab22 _data7" id="pathMalaka">
    <title>Malaka</title>
  </path>
  <path d="M 1097.513 388.802 L 1096.419 385.307 L 1097.928 384.545 L 1096.89 382.309 L 1099.317 376.828 L 1099.177 369.207 L 1092.594 363.661 L 1090.465 363.499 L 1086.385 358.697 L 1084.723 360.026 L 1084.149 364.243 L 1078.902 368.972 L 1070.982 371.513 L 1067.551 375.243 L 1060.023 374.333 L 1059.064 372.582 L 1056.962 372.347 L 1057.257 370.622 L 1055.501 369.045 L 1055.886 363.472 L 1058.94 358.663 L 1057.619 356.934 L 1053.625 357.403 L 1046.253 360.925 L 1042.766 362.606 L 1041.265 365.73 L 1039.226 363.967 L 1036.423 364.582 L 1034.429 366.851 L 1033.111 365.745 L 1032.569 368.051 L 1033.653 373.504 L 1036.013 375.922 L 1035.728 383.61 L 1036.5 388.958 L 1037.596 389.177 L 1034.592 393.084 L 1036.539 394.039 L 1036.354 398.452 L 1038.918 400.905 L 1041.129 408.138 L 1042.326 413.064 L 1041.542 413.952 L 1046.928 415.201 L 1053.802 418.202 L 1056.927 417.7 L 1059.177 418.701 L 1059.929 419.95 L 1064.429 422.2 L 1064.429 420.951 L 1067.177 418.078 L 1068.011 415.458 L 1066.233 413.932 L 1066.652 409.373 L 1064.044 405.673 L 1064.236 397.051 L 1068.143 395.514 L 1069.661 393.223 L 1074.282 394.175 L 1076.211 393.185 L 1079.978 394.306 L 1083.806 398.833 L 1090.201 394.129 L 1097.154 394.242 L 1100.302 391.022 L 1097.513 388.802 Z" stroke-linecap="square" stroke-linejoin="bevel" style="stroke-width: 0.85px; paint-order: fill; fill: rgb(255, 255, 208);" stroke="#646464" class="Kab05 _data1" id="pathBelu">
    <title>Belu</title>
  </path>
  <g id="g5849" transform="matrix(1, 0, 0, 1, 0.928888, 1.151482)">
    <path id="path5899" fill="#E0E0E0" stroke="#646464" stroke-width="1.4173" d="M976.528,392.985l1.178,3.99l-2.465,1.782 l-0.623,7.143l-1.777,2.744l1.386,5.768l-3.844,2.567l-0.302,3.307l-4.972,0.54l-3.371,4.048l-1.685-0.632l-0.988,3.318 l1.076,3.511l-2.561,0.898l1.468,1.718l-4.141,2.005l-0.227,1.967l2.815,4.059l-1.441,0.888l-0.303,3.62l-2.163-0.412l-4.45,2.235 l-2.525-0.404l-0.8,1.574l-3.19,0.038l1.519-8.86l-2.187-2.933l-0.449-3.72l-1.822-2.86l-7.459-5.138l-8.431,4.93l0.634,1.005 l-1.793,3.333l-4.495,1.224l-2.602-3.458l-3.851,0.352l-8.988-10.611l-0.117-1.793l8.942-2.103l2.375-2.304l9.139-3.4l3.849-6.974 l6.225-2.118l5.308-0.123l1.457-1.877l6.58-2.311l1.394-2.269l10.419-0.117l9.702-5.285L976.528,392.985"/>
    <path id="path5901" fill="#E0E0E0" stroke="#646464" stroke-width="1.4173" d="M1132.5,409.063V288.718l-13.562,4.03l-2.22,2.22 l-13.125,0.375l-13.062,4.782l-3.781,2.562l-3.688,7.344l0.094,4.781l-1.438,3.531l0.72,10.5l-2.562,2.438l-6.656,2.625 l-5.625,5.531l-1,5.031l-4.688,9.344l-4.281,2.156L1058,357.5l-3.031,4.812l-0.405,5.594l1.75,1.562l-0.281,1.719l2.094,0.25 l0.5,1.562l8,1.094l3.438-3.719l9.312-3.5l3.875-3.845l0.656-4.344l2.25-0.844l3.375,4.5l2.125,0.156l6.594,5.594l0.125,7.594 l-2.406,5.469l1.031,2.25l-1.5,0.75l1.094,3.5l2.75,2.562l-3.125,2.875l-6.938-0.125l-6.406,4.719l-3.812-4.531l-10.345-1.094 l-1.5,2.312l-3.905,1.53l-0.188,8.625l2.594,3.688l-0.405,4.562l6,5.156l3.719,1.469l-0.094,5.406l5.03,5.469l-0.219,8.625 l1.562,3.345l8.469-6.938l12.312-1.594l7.438-6.562l1.719-3.312l2.938,0.125l3.594-5.312l12.469-8.688L1132.5,409.063 L1132.5,409.063z"/>
  </g>
</svg>